<?xml version="1.0" standalone="no"?>
<!DOCTYPE svg PUBLIC "-//W3C//DTD SVG 20010904//EN"
 "http://www.w3.org/TR/2001/REC-SVG-20010904/DTD/svg10.dtd">
<svg version="1.0" xmlns="http://www.w3.org/2000/svg"
 width="462.000000pt" height="186.000000pt" viewBox="0 0 462.000000 186.000000"
 preserveAspectRatio="xMidYMid meet">

<g transform="translate(0.000000,186.000000) scale(0.100000,-0.100000)"
fill="#000000" stroke="none">
<path d="M382 1487 l-242 -242 0 -330 0 -330 243 -243 242 -242 335 0 335 0
220 220 c120 120 216 223 212 227 -4 4 -103 -88 -220 -205 l-212 -212 -330 0
-330 0 -233 233 -232 232 0 320 0 320 233 233 232 232 325 0 324 0 216 -215
c193 -192 240 -233 240 -207 0 4 -100 107 -223 230 l-222 222 -335 0 -335 0
-243 -243z"/>
<path d="M437 1432 l-217 -217 0 -305 0 -305 218 -218 217 -217 307 0 307 0
188 188 188 187 -380 6 c-269 4 -392 9 -420 18 -71 23 -111 49 -162 104 -66
72 -93 145 -93 246 0 67 4 86 34 146 41 84 91 134 171 172 l60 28 393 3 c215
1 392 6 392 10 0 4 -82 89 -183 190 l-182 182 -310 0 -310 0 -218 -218z"/>
<path d="M855 968 c-34 -18 -45 -40 -45 -90 0 -39 5 -54 25 -73 21 -22 33 -25
90 -25 57 0 69 3 90 25 20 19 25 34 25 74 0 43 -4 53 -31 75 -24 21 -41 26
-82 26 -29 0 -61 -6 -72 -12z m133 -60 c28 -60 -26 -103 -104 -84 -21 6 -24
13 -24 49 0 56 14 69 70 65 38 -3 47 -7 58 -30z"/>
<path d="M1137 973 c-4 -3 -7 -48 -7 -100 0 -86 2 -93 20 -93 16 0 19 8 22 58
2 34 8 57 14 57 7 0 33 -26 59 -57 34 -42 54 -58 72 -58 24 0 24 0 21 98 -3
89 -5 97 -23 97 -17 0 -21 -8 -25 -64 l-5 -65 -44 55 c-63 77 -85 92 -104 72z"/>
<path d="M1434 967 c-3 -8 -4 -52 -2 -98 l3 -84 93 -3 c87 -3 92 -2 92 18 0
18 -6 20 -71 20 -62 0 -70 2 -67 18 2 13 15 18 56 20 44 3 52 6 52 23 0 16 -7
19 -56 19 -47 0 -55 3 -52 18 3 14 16 18 71 20 59 3 67 5 67 22 0 18 -7 20
-90 20 -66 0 -92 -4 -96 -13z"/>
<path d="M1850 960 c-47 -47 -6 -100 78 -100 26 0 42 -5 45 -15 9 -22 -9 -28
-80 -26 -57 1 -64 -1 -61 -16 3 -15 16 -19 76 -21 66 -3 74 -1 97 22 30 30 31
37 7 66 -12 15 -33 24 -72 28 -41 5 -56 11 -58 25 -3 15 5 17 63 17 58 0 66 2
63 18 -3 14 -16 18 -70 20 -57 2 -70 0 -88 -18z"/>
<path d="M2107 974 c-18 -18 -5 -33 31 -36 l37 -3 3 -78 c3 -74 4 -78 25 -75
20 3 22 10 27 78 l5 75 38 3 c30 3 37 7 35 20 -3 14 -18 17 -99 20 -52 1 -98
0 -102 -4z"/>
<path d="M2433 970 c-31 -12 -43 -41 -43 -99 0 -68 28 -91 112 -91 52 0 63 3
89 29 23 23 29 38 29 71 0 33 -6 48 -29 71 -25 25 -37 29 -83 28 -29 0 -63 -4
-75 -9z m125 -42 c7 -7 12 -28 12 -48 0 -48 -15 -60 -72 -60 -37 0 -50 4 -58
19 -15 29 -12 67 6 85 18 19 94 22 112 4z"/>
<path d="M2710 880 c0 -93 1 -100 20 -100 13 0 20 7 20 18 0 30 22 42 76 42
59 0 84 21 84 72 0 51 -30 68 -120 68 l-80 0 0 -100z m150 30 c0 -23 -5 -31
-24 -36 -53 -13 -97 13 -83 50 5 12 19 16 57 16 49 0 50 -1 50 -30z"/>
<path d="M3143 965 c-27 -19 -31 -66 -7 -86 8 -7 40 -14 70 -17 45 -4 54 -8
54 -23 0 -20 -10 -22 -87 -19 -52 2 -69 -6 -52 -26 16 -20 137 -19 167 2 26
18 30 65 7 84 -8 7 -36 15 -63 17 -64 6 -73 10 -66 28 5 11 22 15 71 15 56 0
64 2 61 18 -5 24 -123 30 -155 7z"/>
<path d="M3407 974 c-4 -4 -7 -49 -7 -101 0 -93 0 -93 25 -93 23 0 25 4 25 40
l0 40 54 0 c57 0 66 -7 66 -56 0 -17 5 -24 20 -24 20 0 21 5 18 97 -3 82 -6
98 -20 101 -13 2 -17 -5 -20 -35 l-3 -38 -57 -3 -57 -3 -3 38 c-3 36 -23 54
-41 37z"/>
<path d="M3729 951 c-21 -21 -29 -39 -29 -65 0 -77 34 -106 126 -106 73 0 104
28 104 94 0 24 -3 52 -6 61 -10 26 -59 45 -114 45 -44 0 -56 -5 -81 -29z m143
-28 c20 -18 23 -54 8 -84 -8 -15 -21 -19 -58 -19 -27 0 -53 5 -60 12 -16 16
-16 80 0 96 18 18 88 15 110 -5z"/>
<path d="M4024 966 c-3 -7 -4 -51 -2 -97 3 -78 5 -84 25 -87 17 -3 22 2 25 25
3 27 6 28 68 33 56 4 66 8 77 30 15 28 9 67 -14 93 -21 22 -170 25 -179 3z
m153 -42 c11 -30 -11 -49 -58 -49 -42 0 -44 1 -47 33 l-3 32 51 0 c38 0 52 -4
57 -16z"/>
</g>
</svg>
